<svg xmlns="http://www.w3.org/2000/svg" viewBox="0 0 89 73"><g fill="indianred"><path d="M2.97.36C1.2.36 0 1.9 0 3.46v65c0 1.54 1.2 3.1 2.97 3.1h11.87c1.75 0 2.96-1.56 2.96-3.1v-65c0-1.57-1.2-3.1-2.96-3.1H2.97zm43.5 0c-1.74 0-2.95 1.53-2.95 3.1v65c0 1.54 1.2 3.1 2.96 3.1h11.87c1.76 0 2.97-1.56 2.97-3.1v-65c0-1.57-1.2-3.1-2.97-3.1H46.48zM3.97 4.3h9.9v9.9h-9.9V4.3zm43.5 0h9.9v9.9h-9.9V4.3zm-22.73 0c-1.6 0-2.97 1.37-2.97 2.98V68.6c0 1.6 1.36 2.97 2.97 2.97H36.6c1.6 0 2.96-1.36 2.96-2.97V7.28c0-1.6-1.36-2.97-2.97-2.97H24.7zm.98 3.97h9.9v7.9h-9.9v-7.9zm-21.74 9.9h9.9v35.6h-9.9v-35.6zm43.5 0h9.9v35.6h-9.9v-35.6zm-21.75 1.97h9.9v35.6h-9.9v-35.6zM3.97 57.72h9.9v9.9h-9.9v-9.9zm43.5 0h9.9v9.9h-9.9v-9.9zM25.72 59.7h9.9v7.9h-9.9v-7.9z"/><path d="M63.73 15.2c-1.5.3-2.67 1.8-2.36 3.43l9.86 50.6c.3 1.62 1.96 2.58 3.46 2.28l11.6-2.2c1.5-.3 2.7-1.8 2.35-3.42l-9.87-50.6c-.3-1.62-1.96-2.58-3.46-2.3L63.7 15.23zm1.72 3.7l9.7-1.9 1.52 7.78-9.7 1.9-1.52-7.78zm2.27 11.65l9.7-1.9 4.93 25.25-9.7 1.9-4.93-25.25zm5.68 29.13l9.7-1.9 1.52 7.77-9.7 1.9-1.52-7.77z"/></g></svg>