<svg viewBox="0 0 89 73" xmlns="http://www.w3.org/2000/svg"><g fill="#cd5c5c"><path d="m2.97.36c-1.77 0-2.97 1.54-2.97 3.1v65c0 1.54 1.2 3.1 2.97 3.1h11.87c1.75 0 2.96-1.56 2.96-3.1v-65c0-1.57-1.2-3.1-2.96-3.1h-11.87zm43.5 0c-1.74 0-2.95 1.53-2.95 3.1v65c0 1.54 1.2 3.1 2.96 3.1h11.87c1.76 0 2.97-1.56 2.97-3.1v-65c0-1.57-1.2-3.1-2.97-3.1h-11.87zm-42.5 3.94h9.9v9.9h-9.9zm43.5 0h9.9v9.9h-9.9zm-22.73 0c-1.6 0-2.97 1.37-2.97 2.98v61.32c0 1.6 1.36 2.97 2.97 2.97h11.86c1.6 0 2.96-1.36 2.96-2.97v-61.32c0-1.6-1.36-2.97-2.97-2.97h-11.89zm.98 3.97h9.9v7.9h-9.9zm-21.74 9.9h9.9v35.6h-9.9zm43.5 0h9.9v35.6h-9.9zm-21.75 1.97h9.9v35.6h-9.9zm-21.76 37.58h9.9v9.9h-9.9zm43.5 0h9.9v9.9h-9.9zm-21.75 1.98h9.9v7.9h-9.9z"/><path d="m63.73 15.2c-1.5.3-2.67 1.8-2.36 3.43l9.86 50.6c.3 1.62 1.96 2.58 3.46 2.28l11.6-2.2c1.5-.3 2.7-1.8 2.35-3.42l-9.87-50.6c-.3-1.62-1.96-2.58-3.46-2.3l-11.61 2.24zm1.72 3.7 9.7-1.9 1.52 7.78-9.7 1.9zm2.27 11.65 9.7-1.9 4.93 25.25-9.7 1.9zm5.68 29.13 9.7-1.9 1.52 7.77-9.7 1.9z"/></g></svg>